REM DIRINDEX 1\2,1\4,1\3\5,1\3\6,1\3\7
REM DIRNAME folder01,folder02,folder03,folder04,folder05,folder06,folder07
TITLE ""
FILE "CD1Track62.mp3" MP3
  TRACK 01 AUDIO
    TITLE "0:"
    INDEX 01 00:00:00
  TRACK 02 AUDIO
    TITLE "4:cjc083_1253"
    INDEX 01 00:00:31
  TRACK 03 AUDIO
    TITLE "0:"
    INDEX 01 00:04:54
  TRACK 04 AUDIO
    TITLE "5:cjc083_1254"
    INDEX 01 00:05:28
  TRACK 05 AUDIO
    TITLE "0:"
    INDEX 01 00:06:51
  TRACK 06 AUDIO
    TITLE "6:cjc083_1255"
    INDEX 01 00:07:17
  TRACK 07 AUDIO
    TITLE "0:"
    INDEX 01 00:08:32
  TRACK 08 AUDIO
    TITLE "5:cjc083_1256"
    INDEX 01 00:08:73
  TRACK 09 AUDIO
    TITLE "0:"
    INDEX 01 00:10:19
  TRACK 10 AUDIO
    TITLE "6:cjc083_1257"
    INDEX 01 00:10:61
  TRACK 11 AUDIO
    TITLE "0:"
    INDEX 01 00:12:22
  TRACK 12 AUDIO
    TITLE "5:cjc083_1258"
    INDEX 01 00:12:65
  TRACK 13 AUDIO
    TITLE "0:"
    INDEX 01 00:14:62
  TRACK 14 AUDIO
    TITLE "6:cjc083_1259"
    INDEX 01 00:15:28
  TRACK 15 AUDIO
    TITLE "0:"
    INDEX 01 00:17:47
  TRACK 16 AUDIO
    TITLE "5:cjc083_1260"
    INDEX 01 00:18:15
  TRACK 17 AUDIO
    TITLE "0:"
    INDEX 01 00:19:38
  TRACK 18 AUDIO
    TITLE "6:cjc083_1261"
    INDEX 01 00:20:16
  TRACK 19 AUDIO
    TITLE "0:"
    INDEX 01 00:21:53
  TRACK 20 AUDIO
    TITLE "5:cjc083_1262"
    INDEX 01 00:22:17
  TRACK 21 AUDIO
    TITLE "0:"
    INDEX 01 00:23:18
  TRACK 22 AUDIO
    TITLE "6:cjc083_1263"
    INDEX 01 00:23:67
  TRACK 23 AUDIO
    TITLE "0:"
    INDEX 01 00:25:01
  TRACK 24 AUDIO
    TITLE "5:cjc083_1264"
    INDEX 01 00:25:45
  TRACK 25 AUDIO
    TITLE "0:"
    INDEX 01 00:27:06
  TRACK 26 AUDIO
    TITLE "6:cjc083_1265"
    INDEX 01 00:27:47
  TRACK 27 AUDIO
    TITLE "0:"
    INDEX 01 00:29:40
  TRACK 28 AUDIO
    TITLE "5:cjc083_1266"
    INDEX 01 00:30:12
  TRACK 29 AUDIO
    TITLE "0:"
    INDEX 01 00:32:15
  TRACK 30 AUDIO
    TITLE "6:cjc083_1267"
    INDEX 01 00:32:58
  TRACK 31 AUDIO
    TITLE "0:"
    INDEX 01 00:35:39
  TRACK 32 AUDIO
    TITLE "5:cjc083_1268"
    INDEX 01 00:36:07
  TRACK 33 AUDIO
    TITLE "0:"
    INDEX 01 00:37:30
  TRACK 34 AUDIO
    TITLE "6:cjc083_1269"
    INDEX 01 00:38:00
  TRACK 35 AUDIO
    TITLE "0:"
    INDEX 01 00:38:71
  TRACK 36 AUDIO
    TITLE "5:cjc083_1270"
    INDEX 01 00:39:41
  TRACK 37 AUDIO
    TITLE "0:"
    INDEX 01 00:40:66
  TRACK 38 AUDIO
    TITLE "6:cjc083_1271"
    INDEX 01 00:41:32
  TRACK 39 AUDIO
    TITLE "0:"
    INDEX 01 00:42:63
  TRACK 40 AUDIO
    TITLE "5:cjc083_1272"
    INDEX 01 00:43:29
  TRACK 41 AUDIO
    TITLE "0:"
    INDEX 01 00:44:67
  TRACK 42 AUDIO
    TITLE "6:cjc083_1273"
    INDEX 01 00:45:32
  TRACK 43 AUDIO
    TITLE "0:"
    INDEX 01 00:46:66
  TRACK 44 AUDIO
    TITLE "5:cjc083_1274"
    INDEX 01 00:47:42
  TRACK 45 AUDIO
    TITLE "0:"
    INDEX 01 00:48:65
  TRACK 46 AUDIO
    TITLE "6:cjc083_1275"
    INDEX 01 00:49:31
  TRACK 47 AUDIO
    TITLE "0:"
    INDEX 01 00:50:50
  TRACK 48 AUDIO
    TITLE "5:cjc083_1276"
    INDEX 01 00:51:18
  TRACK 49 AUDIO
    TITLE "0:"
    INDEX 01 00:52:57
  TRACK 50 AUDIO
    TITLE "6:cjc083_1277"
    INDEX 01 00:53:23
  TRACK 51 AUDIO
    TITLE "0:"
    INDEX 01 00:54:48
  TRACK 52 AUDIO
    TITLE "5:cjc083_1278"
    INDEX 01 00:55:20
  TRACK 53 AUDIO
    TITLE "0:"
    INDEX 01 00:56:35
  TRACK 54 AUDIO
    TITLE "6:cjc083_1279"
    INDEX 01 00:57:07
  TRACK 55 AUDIO
    TITLE "0:"
    INDEX 01 00:58:15
  TRACK 56 AUDIO
    TITLE "5:cjc083_1280"
    INDEX 01 00:58:60
  TRACK 57 AUDIO
    TITLE "0:"
    INDEX 01 01:00:35
  TRACK 58 AUDIO
    TITLE "6:cjc083_1281"
    INDEX 01 01:01:05
  TRACK 59 AUDIO
    TITLE "0:"
    INDEX 01 01:03:20
  TRACK 60 AUDIO
    TITLE "5:cjc083_1282"
    INDEX 01 01:03:61
  TRACK 61 AUDIO
    TITLE "0:"
    INDEX 01 01:05:03
  TRACK 62 AUDIO
    TITLE "6:cjc083_1283"
    INDEX 01 01:05:48
  TRACK 63 AUDIO
    TITLE "0:"
    INDEX 01 01:07:51
  TRACK 64 AUDIO
    TITLE "5:cjc083_1284"
    INDEX 01 01:08:15
  TRACK 65 AUDIO
    TITLE "0:"
    INDEX 01 01:09:26
  TRACK 66 AUDIO
    TITLE "6:cjc083_1285"
    INDEX 01 01:09:73
  TRACK 67 AUDIO
    TITLE "0:"
    INDEX 01 01:11:15
  TRACK 68 AUDIO
    TITLE "5:cjc083_1286"
    INDEX 01 01:11:58
  TRACK 69 AUDIO
    TITLE "0:"
    INDEX 01 01:13:00
  TRACK 70 AUDIO
    TITLE "6:cjc083_1287"
    INDEX 01 01:13:38
  TRACK 71 AUDIO
    TITLE "0:"
    INDEX 01 01:15:11
  TRACK 72 AUDIO
    TITLE "5:cjc083_1288"
    INDEX 01 01:15:52
  TRACK 73 AUDIO
    TITLE "0:"
    INDEX 01 01:16:63
  TRACK 74 AUDIO
    TITLE "6:cjc083_1289"
    INDEX 01 01:17:32
  TRACK 75 AUDIO
    TITLE "0:"
    INDEX 01 01:18:45
  TRACK 76 AUDIO
    TITLE "5:cjc083_1290"
    INDEX 01 01:19:15
  TRACK 77 AUDIO
    TITLE "0:"
    INDEX 01 01:20:26
  TRACK 78 AUDIO
    TITLE "6:cjc083_1291"
    INDEX 01 01:20:71
  TRACK 79 AUDIO
    TITLE "0:"
    INDEX 01 01:22:29
  TRACK 80 AUDIO
    TITLE "7:cjc083_1292"
    INDEX 01 01:23:63
  TRACK 81 AUDIO
    TITLE "0:"
    INDEX 01 01:34:32
